<?xml version="1.0" encoding="utf-8"?>
<!-- Generator: Adobe Illustrator 27.0.0, SVG Export Plug-In . SVG Version: 6.00 Build 0)  -->
<svg version="1.1" id="Layer_1" xmlns="http://www.w3.org/2000/svg" xmlns:xlink="http://www.w3.org/1999/xlink" x="0px" y="0px"
	 viewBox="0 0 480 480" style="enable-background:new 0 0 480 480;" xml:space="preserve">
<style type="text/css">
	.st0{fill:#FFFFFF;}
</style>
<path class="st0" d="M184,288c-44.2,0-80,35.8-80,80s35.8,80,80,80s80-35.8,80-80C264,323.8,228.2,288,184,288z M184,432
	c-35.3,0-64-28.7-64-64s28.7-64,64-64s64,28.7,64,64C248,403.3,219.3,432,184,432z"/>
<path class="st0" d="M184,344c9.8,0,16,4.7,16,8h16c0-11.4-10.1-20.6-24-23.2V320h-16v8.8c-13.9,2.6-24,11.8-24,23.2
	c0,13.5,14.1,24,32,24c9.8,0,16,4.7,16,8s-6.2,8-16,8s-16-4.7-16-8h-16c0,11.4,10.1,20.6,24,23.2v8.8h16v-8.8
	c13.9-2.6,24-11.8,24-23.2c0-13.5-14.1-24-32-24c-9.8,0-16-4.7-16-8S174.2,344,184,344z"/>
<path class="st0" d="M408,464H72V272h128c13.3,0,24-10.7,24-24V48h88v96h96v112h16V132.7L323.3,32H224v-8c0-13.3-10.7-24-24-24H24
	C10.7,0,0,10.7,0,24v224c0,13.3,10.7,24,24,24h32v208h368V368h-16V464z M328,59.3l68.7,68.7H328V59.3z M16,248V24c0-4.4,3.6-8,8-8
	h176c4.4,0,8,3.6,8,8v224c0,4.4-3.6,8-8,8H24C19.6,256,16,252.4,16,248z"/>
<path class="st0" d="M256,200h16v16h-16V200z"/>
<path class="st0" d="M288,200h96v16h-96V200z"/>
<path class="st0" d="M256,168h16v16h-16V168z"/>
<path class="st0" d="M288,168h96v16h-96V168z"/>
<path class="st0" d="M256,232h16v16h-16V232z"/>
<path class="st0" d="M288,232h96v16h-96V232z"/>
<path class="st0" d="M256,264h16v16h-16V264z"/>
<path class="st0" d="M288,264h96v16h-96V264z"/>
<path class="st0" d="M200,24H24v56h176V24z M184,64H40V40h144V64z"/>
<path class="st0" d="M64,88H48c-8.8,0-16,7.2-16,16v16c0,8.8,7.2,16,16,16h16c8.8,0,16-7.2,16-16v-16C80,95.2,72.8,88,64,88z
	 M48,120v-16h16v16H48z"/>
<path class="st0" d="M120,88h-16c-8.8,0-16,7.2-16,16v16c0,8.8,7.2,16,16,16h16c8.8,0,16-7.2,16-16v-16C136,95.2,128.8,88,120,88z
	 M104,120v-16h16v16H104z"/>
<path class="st0" d="M176,88h-16c-8.8,0-16,7.2-16,16v16c0,8.8,7.2,16,16,16h16c8.8,0,16-7.2,16-16v-16C192,95.2,184.8,88,176,88z
	 M160,120v-16h16v16H160z"/>
<path class="st0" d="M64,144H48c-8.8,0-16,7.2-16,16v16c0,8.8,7.2,16,16,16h16c8.8,0,16-7.2,16-16v-16C80,151.2,72.8,144,64,144z
	 M48,176v-16h16v16H48z"/>
<path class="st0" d="M120,144h-16c-8.8,0-16,7.2-16,16v16c0,8.8,7.2,16,16,16h16c8.8,0,16-7.2,16-16v-16
	C136,151.2,128.8,144,120,144z M104,176v-16h16v16H104z"/>
<path class="st0" d="M176,144h-16c-8.8,0-16,7.2-16,16v16c0,8.8,7.2,16,16,16h16c8.8,0,16-7.2,16-16v-16
	C192,151.2,184.8,144,176,144z M160,176v-16h16v16H160z"/>
<path class="st0" d="M64,200H48c-8.8,0-16,7.2-16,16v16c0,8.8,7.2,16,16,16h16c8.8,0,16-7.2,16-16v-16C80,207.2,72.8,200,64,200z
	 M48,232v-16h16v16H48z"/>
<path class="st0" d="M120,200h-16c-8.8,0-16,7.2-16,16v16c0,8.8,7.2,16,16,16h16c8.8,0,16-7.2,16-16v-16
	C136,207.2,128.8,200,120,200z M104,232v-16h16v16H104z"/>
<path class="st0" d="M176,200h-16c-8.8,0-16,7.2-16,16v16c0,8.8,7.2,16,16,16h16c8.8,0,16-7.2,16-16v-16
	C192,207.2,184.8,200,176,200z M160,232v-16h16v16H160z"/>
<path class="st0" d="M472.7,255.3c-9.5-9.1-24.4-9.1-33.9,0L301.7,392.4c-0.7,0.7-1.2,1.5-1.6,2.3l-19.3,41.9c-1.4,3-0.8,6.6,1.6,9
	c2.4,2.4,6,3,9,1.6l41.9-19.3c0.9-0.4,1.6-0.9,2.3-1.6l137.1-137.1C482.1,279.8,482.1,264.6,472.7,255.3z M325.3,414l-21,9.7l9.7-21
	l102.3-102.3l11.3,11.3L325.3,414z M438.9,300.4l-11.3-11.3l5.6-5.6l11.3,11.3L438.9,300.4z M461.4,277.9l-5.7,5.7l-11.3-11.3
	l5.7-5.7c3.2-3,8.1-3,11.3,0C464.6,269.7,464.6,274.7,461.4,277.9z"/>
</svg>
