<?xml version="1.0" encoding="utf-8"?>
<!-- Generator: Adobe Illustrator 27.0.0, SVG Export Plug-In . SVG Version: 6.00 Build 0)  -->
<svg version="1.1" id="Icons" xmlns="http://www.w3.org/2000/svg" xmlns:xlink="http://www.w3.org/1999/xlink" x="0px" y="0px"
	 viewBox="0 0 512 512" style="enable-background:new 0 0 512 512;" xml:space="preserve">
<style type="text/css">
	.st0{fill:#FFFFFF;}
</style>
<path class="st0" d="M499.3,86.7l-74-74c-17-16.9-44.4-16.9-61.4,0l-21.1,21.1c-9.1-2.7-18.8-2.7-27.9,0.2c-9.9,3.2-20.7,1-28.5-5.7
	c-17.5-15-43.4-14.9-60.9,0.1c-7.9,6.6-18.7,8.8-28.5,5.6c-4.7-1.5-9.6-2.3-14.6-2.3c-17.6-0.1-33.7,9.9-41.7,25.6
	c-4.7,9.3-13.9,15.5-24.2,16.2c-23,1.8-41.2,20-43,43c-0.4,5.1-2.1,10-5,14.2c-2.8,4.3-6.7,7.7-11.3,10.1
	c-15.7,7.9-25.7,24-25.6,41.7c0,5,0.8,9.9,2.3,14.7c3.2,9.8,1,20.7-5.7,28.5c-15,17.5-14.9,43.4,0.1,60.9c4.6,5.4,7.1,12.2,7.1,19.3
	c0,3.1-0.5,6.2-1.5,9.2c-3,9.1-3.1,18.8-0.3,28l-21.1,21c-16.9,17-16.9,44.4,0,61.4l74,74c17,16.9,44.4,16.9,61.4,0l21.1-21.1
	c9.1,2.7,18.8,2.7,27.9-0.2c9.8-3.2,20.7-1,28.5,5.7c17.5,15,43.3,14.9,60.9-0.1c7.9-6.6,18.7-8.8,28.5-5.6
	c4.7,1.5,9.6,2.3,14.6,2.3c17.6,0.1,33.7-9.9,41.7-25.6c4.7-9.3,13.9-15.5,24.2-16.2c23-1.8,41.2-20,43-43c0.4-5.1,2.1-10,5-14.2
	c2.8-4.3,6.7-7.7,11.3-10c15.7-7.9,25.7-24,25.6-41.7c0-5-0.8-9.9-2.3-14.6c-3.2-9.8-1-20.7,5.7-28.5c15-17.5,14.9-43.4-0.1-60.9
	c-6.7-7.9-8.8-18.7-5.6-28.5c3-9.1,3.1-18.8,0.3-28l21.1-21C516.2,131.1,516.2,103.6,499.3,86.7z M41.3,275.3
	c-9.5-11.1-9.4-27.5,0.1-38.6c10.6-12.4,13.9-29.4,8.9-44.8c-1-3-1.5-6.2-1.5-9.4C48.8,171.2,55,161,65,156
	c7.2-3.6,13.3-9,17.7-15.7c4.5-6.7,7.2-14.4,7.8-22.5c1.1-14.6,12.7-26.1,27.3-27.2c16.3-1.3,30.7-11,38.1-25.6
	c5-10,15.3-16.3,26.5-16.2c3.2,0,6.3,0.5,9.3,1.5c15.5,4.9,32.5,1.5,45-9c11.1-9.5,27.5-9.4,38.6,0.1c12.4,10.6,29.4,13.9,44.8,8.9
	c2.4-0.7,4.9-1.2,7.4-1.3l-32.3,32.3c-12.9-2.9-26.1-4.4-39.4-4.4C157.1,76.9,76.9,157.1,76.8,256c0,13.3,1.5,26.5,4.5,39.4
	L49,327.7c0.1-2.5,0.6-5,1.3-7.5c1.5-4.7,2.3-9.6,2.3-14.5C52.6,294.5,48.5,283.7,41.3,275.3z M95.8,280.8
	c-13.9-88.3,46.4-171.1,134.6-185c16.7-2.6,33.7-2.6,50.4,0L95.8,280.8z M470.7,236.7c9.5,11.1,9.4,27.5-0.1,38.6
	c-10.6,12.4-13.9,29.4-8.9,44.8c1,3,1.5,6.2,1.5,9.4c0,11.2-6.2,21.4-16.2,26.5c-7.2,3.6-13.3,9-17.7,15.7
	c-4.5,6.7-7.2,14.4-7.8,22.5c-1.1,14.6-12.7,26.1-27.3,27.2c-16.3,1.3-30.7,11-38.1,25.6c-5,10-15.3,16.3-26.5,16.2
	c-3.2,0-6.3-0.5-9.3-1.5c-15.5-4.9-32.5-1.5-45,9c-11.1,9.5-27.5,9.4-38.6-0.1c-12.4-10.6-29.4-13.9-44.8-8.9
	c-2.4,0.7-4.9,1.2-7.4,1.3l32.3-32.2c12.9,3,26.1,4.5,39.4,4.5c98.9-0.1,179.1-80.3,179.2-179.2c0-13.3-1.5-26.5-4.5-39.4l32.3-32.3
	c-0.1,2.5-0.6,5-1.3,7.5C456.7,207.3,460.1,224.4,470.7,236.7L470.7,236.7z M416.2,231.2c13.9,88.3-46.4,171.1-134.6,185
	c-16.7,2.6-33.7,2.6-50.4,0L416.2,231.2z M487.3,136L136,487.3c-10.3,10.3-26.9,10.3-37.2,0l-74-74c-10.3-10.3-10.3-26.9,0-37.2
	L376,24.7c10.3-10.2,26.9-10.2,37.2,0l74,74C497.5,109,497.5,125.7,487.3,136z"/>
<path class="st0" d="M113.7,370.6c-10.1-9.7-26.1-9.7-36.2,0c-10,10-10,26.2,0,36.2l36.1,36.3c3.3,3.4,8.7,3.5,12.1,0.2
	c3.4-3.3,3.5-8.7,0.2-12.1c-0.1-0.1-0.1-0.1-0.2-0.2l-12.1-12.1l12.1-12.1l12,12.1c3.3,3.4,8.7,3.5,12.1,0.2s3.5-8.7,0.2-12.1
	c-0.1-0.1-0.1-0.1-0.2-0.2L113.7,370.6z M101.6,406.8l-12-12.1c-3.3-3.3-3.3-8.7,0-12.1c0,0,0,0,0,0c3.4-3.2,8.7-3.2,12,0l12.1,12.1
	L101.6,406.8z"/>
<path class="st0" d="M306.8,177.5c-10.1-9.7-26.1-9.7-36.2,0c-10,10-10,26.2,0,36.2l24.1,24.1c10,10,26.2,10,36.2,0c0,0,0,0,0,0l0,0
	c10-10,10-26.2,0-36.2L306.8,177.5z M318.8,225.7L318.8,225.7c-3.3,3.3-8.7,3.3-12.1,0c0,0,0,0,0,0l-24.1-24.1
	c-3.3-3.3-3.3-8.7,0-12.1c1.6-1.6,3.8-2.5,6-2.5c2.3,0,4.4,0.9,6,2.5l24.1,24.1C322.2,217,322.2,222.4,318.8,225.7L318.8,225.7z"/>
<path class="st0" d="M344.3,118.8c-2.4-4-7.7-5.4-11.7-2.9c-4,2.4-5.4,7.7-2.9,11.7l18.6,31.1L317.2,140c-4-2.4-9.3-1.1-11.7,2.9
	c-2.4,4-1.1,9.3,2.9,11.7l60.3,36.2c4.1,2.4,9.3,1.1,11.7-3c1.6-2.7,1.6-6,0-8.7L344.3,118.8z"/>
<path class="st0" d="M427.5,117.2l-18.1,18.1l-12.1-12.1l6-6c3.3-3.4,3.2-8.8-0.2-12.1c-3.3-3.2-8.5-3.2-11.9,0l-6,6l-12.1-12.1
	L391.3,81c3.4-3.3,3.5-8.7,0.2-12.1c-3.3-3.4-8.7-3.5-12.1-0.2c-0.1,0.1-0.1,0.1-0.2,0.2L361.1,87c-6.7,6.7-6.7,17.5,0,24.1
	c0,0,0,0,0,0l36.2,36.2c6.7,6.7,17.5,6.7,24.1,0l18.1-18.1c3.3-3.3,3.3-8.7,0-12.1C436.2,113.9,430.8,113.9,427.5,117.2L427.5,117.2
	L427.5,117.2z"/>
<path class="st0" d="M155.9,364.6l6-6l0,0c10-10,10-26.2,0-36.2c-10-10-26.2-10-36.2,0l0,0l-12.1,12.1c-3.3,3.3-3.3,8.7,0,12.1
	l24.1,24.1l24.1,24.1c3.3,3.3,8.7,3.3,12.1,0c3.3-3.3,3.3-8.7,0-12.1L155.9,364.6z M137.8,334.4c3.2-3.4,8.6-3.6,12.1-0.4
	c3.4,3.2,3.6,8.6,0.4,12.1c-0.1,0.1-0.3,0.3-0.4,0.4l-6,6l-12.1-12L137.8,334.4z"/>
<path class="st0" d="M204.2,316.3l6-6c10.2-9.8,10.5-26,0.6-36.2c-9.8-10.2-26-10.5-36.2-0.6c-0.2,0.2-0.4,0.4-0.6,0.6L162,286.1
	c-3.3,3.3-3.3,8.7,0,12.1l24.1,24.1l24.1,24.1c3.4,3.3,8.8,3.2,12.1-0.2c3.2-3.3,3.2-8.5,0-11.9L204.2,316.3z M186.1,286.1
	c3.4-3.2,8.7-3.2,12.1,0c1.6,1.6,2.5,3.8,2.5,6c0,2.3-0.9,4.4-2.5,6l0,0l-6,6l-12.1-12.1L186.1,286.1z"/>
<path class="st0" d="M282.6,249.9c-4.5-4.5-10.5-7.1-16.8-7.4c-0.6-14.1-12.6-24.9-26.6-24.3c-6.4,0.3-12.4,3-16.9,7.5l-12.1,12.1
	c-3.3,3.3-3.3,8.7,0,12.1l24.1,24.1l24.1,24.1c3.4,3.3,8.8,3.2,12.1-0.2c3.2-3.3,3.2-8.5,0-11.9L252.5,268l6-6
	c3.3-3.3,8.7-3.3,12.1,0l12.1,12.1c3.3,3.3,8.7,3.3,12.1,0c3.3-3.3,3.3-8.7,0-12.1L282.6,249.9z M234.4,237.8
	c3.3-3.3,8.7-3.3,12.1,0c3.3,3.3,3.3,8.7,0,12.1l-6,6.1l-12.1-12.1L234.4,237.8z"/>
</svg>
