<?xml version="1.0" encoding="utf-8"?>
<!-- Generator: Adobe Illustrator 27.0.0, SVG Export Plug-In . SVG Version: 6.00 Build 0)  -->
<svg version="1.1" id="Icons" xmlns="http://www.w3.org/2000/svg" xmlns:xlink="http://www.w3.org/1999/xlink" x="0px" y="0px"
	 viewBox="0 0 512 512" style="enable-background:new 0 0 512 512;" xml:space="preserve">
<style type="text/css">
	.st0{fill:#FFFFFF;}
</style>
<path class="st0" d="M298.7,204.4c-51.8,0-93.9,42-93.9,93.9s42,93.9,93.9,93.9s93.9-42,93.9-93.9l0,0
	C392.5,246.4,350.5,204.4,298.7,204.4z M298.7,375c-42.4,0-76.8-34.4-76.8-76.8s34.4-76.8,76.8-76.8s76.8,34.4,76.8,76.8
	C375.4,340.6,341.1,375,298.7,375L298.7,375z"/>
<path class="st0" d="M448.2,403.5c-4.8-4.7-11-7.6-17.6-8.4L405,369.4c39.3-58.6,23.7-138-34.9-177.4
	c-18.7-12.6-40.4-19.9-62.9-21.4V16.6c0-9.4-7.6-17.1-17.1-17.1H75.3c-6.8,0-13.4,2.7-18.2,7.5L7.5,56.7C2.7,61.5,0,68.1,0,74.9V375
	c0,9.4,7.6,17.1,17.1,17.1h194.9c43.4,40.4,108.9,45.5,158.1,12.4l25.2,25.2c0.8,6.9,3.9,13.3,8.8,18.2l54.6,54.6
	c12.2,12.2,32,12.2,44.3,0c12.2-12.2,12.2-32,0-44.3l0,0L448.2,403.5z M59.7,28.7v30.6H29.1L59.7,28.7z M17.1,76.3h42.7
	c9.4,0,17.1-7.6,17.1-17.1V16.6h213.3v154.1c-70.4,4.5-123.7,65.2-119.2,135.6c1.6,24.9,10.5,48.9,25.6,68.8H17.1V76.3z
	 M187.7,298.2c0-61.3,49.7-110.9,110.9-110.9s110.9,49.7,110.9,110.9s-49.7,110.9-110.9,110.9C237.4,409.1,187.8,359.5,187.7,298.2
	L187.7,298.2z M394.4,382.9l15.9,15.9c-2.3,1.3-4.4,2.8-6.3,4.7c-1.8,1.8-3.3,3.9-4.6,6.1l-15.8-15.8
	C387.3,390.4,391,386.8,394.4,382.9L394.4,382.9z M490.8,490.4c-5.6,5.4-14.5,5.4-20.1,0L416,435.7c-5.6-5.6-5.6-14.6,0-20.1
	c5.6-5.6,14.6-5.6,20.1,0l54.6,54.6C496.3,475.8,496.3,484.8,490.8,490.4L490.8,490.4z"/>
<path class="st0" d="M196.3,161.7c0-20.3-14.3-37.7-34.1-41.8V69.4c10.2,3.6,17,13.2,17.1,24c0,4.7,3.8,8.5,8.5,8.5
	c4.7,0,8.5-3.8,8.5-8.5c0-20.3-14.3-37.7-34.1-41.8v-0.9c0-4.7-3.8-8.5-8.5-8.5s-8.5,3.8-8.5,8.5v0.9c-23.1,4.7-38,27.2-33.3,50.3
	c3.4,16.8,16.5,29.9,33.3,33.3v50.5c-10.2-3.6-17-13.2-17.1-24c0-4.7-3.8-8.5-8.5-8.5c-4.7,0-8.5,3.8-8.5,8.5
	c0,20.3,14.3,37.7,34.1,41.8v0.9c0,4.7,3.8,8.5,8.5,8.5s8.5-3.8,8.5-8.5v-0.9C182,199.4,196.2,182,196.3,161.7z M179.2,161.7
	c0,10.8-6.9,20.4-17.1,24v-48.1C172.3,141.3,179.2,150.9,179.2,161.7z M128,93.4c0-10.8,6.9-20.4,17.1-24v48.1
	C134.9,113.8,128,104.2,128,93.4L128,93.4z"/>
<path class="st0" d="M153.6,238.5H51.2c-4.7,0-8.5,3.8-8.5,8.5s3.8,8.5,8.5,8.5h102.4c4.7,0,8.5-3.8,8.5-8.5
	S158.3,238.5,153.6,238.5z"/>
<path class="st0" d="M51.2,298.2h93.9c4.7,0,8.5-3.8,8.5-8.5s-3.8-8.5-8.5-8.5H51.2c-4.7,0-8.5,3.8-8.5,8.5S46.5,298.2,51.2,298.2z"
	/>
<path class="st0" d="M153.6,323.8H51.2c-4.7,0-8.5,3.8-8.5,8.5s3.8,8.5,8.5,8.5h102.4c4.7,0,8.5-3.8,8.5-8.5
	S158.3,323.8,153.6,323.8z"/>
<path class="st0" d="M262,287.2l25.6-25.6c3.3-3.3,3.3-8.7,0-12.1c-3.3-3.3-8.7-3.3-12.1,0l0,0L250,275.1c-3.4,3.3-3.5,8.7-0.2,12.1
	s8.7,3.5,12.1,0.2C261.9,287.3,262,287.3,262,287.2L262,287.2z"/>
<path class="st0" d="M309.7,266.6l-51.2,51.2c-3.4,3.3-3.5,8.7-0.2,12.1c3.3,3.4,8.7,3.5,12.1,0.2c0.1-0.1,0.1-0.1,0.2-0.2
	l51.2-51.2c3.4-3.3,3.5-8.7,0.2-12.1c-3.3-3.4-8.7-3.5-12.1-0.2C309.8,266.5,309.8,266.5,309.7,266.6L309.7,266.6z"/>
</svg>
