<?xml version="1.0" encoding="utf-8"?>
<!-- Generator: Adobe Illustrator 27.0.0, SVG Export Plug-In . SVG Version: 6.00 Build 0)  -->
<svg version="1.1" id="svg2622" xmlns:svg="http://www.w3.org/2000/svg"
	 xmlns="http://www.w3.org/2000/svg" xmlns:xlink="http://www.w3.org/1999/xlink" x="0px" y="0px" viewBox="0 0 682.7 682.7"
	 style="enable-background:new 0 0 682.7 682.7;" xml:space="preserve">
<style type="text/css">
	.st0{clip-path:url(#SVGID_00000162312424117161347370000017867012915343492496_);}
	.st1{fill:none;stroke:#FFFFFF;stroke-width:40;stroke-linecap:round;stroke-linejoin:round;stroke-miterlimit:13.3333;}
</style>
<g id="g2628" transform="matrix(1.3333333,0,0,-1.3333333,0,682.66667)">
	<g id="g2630">
		<g>
			<defs>
				<rect id="SVGID_1_" x="-85.3" y="-85.3" width="682.7" height="682.7"/>
			</defs>
			<clipPath id="SVGID_00000049909155037084057250000016700076071226563489_">
				<use xlink:href="#SVGID_1_"  style="overflow:visible;"/>
			</clipPath>
			<g id="g2632" style="clip-path:url(#SVGID_00000049909155037084057250000016700076071226563489_);">
				<g id="g2638" transform="translate(497,392.5664)">
					<path id="path2640" class="st1" d="M0,0c0,8.5-3.4,16.7-9.4,22.7c-6,6-14.2,9.4-22.7,9.4h-417.7c-8.5,0-16.7-3.4-22.7-9.4
						c-6-6-9.4-14.2-9.4-22.7v-273.1c0-8.5,3.4-16.7,9.4-22.7c6-6,14.2-9.4,22.7-9.4h417.7c8.5,0,16.7,3.4,22.7,9.4
						c6,6,9.4,14.2,9.4,22.7L0,0z"/>
				</g>
				<g id="g2642" transform="translate(159.5996,296.167)">
					<path id="path2644" class="st1" d="M0,0c22.2,0,40.2-18,40.2-40.2S22.2-80.3,0-80.3c-22.2,0-40.2,18-40.2,40.2S-22.2,0,0,0z"/>
				</g>
				<g id="g2646" transform="translate(159.5996,215.833)">
					<path id="path2648" class="st1" d="M0,0c35.5,0,64.3-28.8,64.3-64.3H-64.3C-64.3-28.8-35.5,0,0,0z"/>
				</g>
				<g id="g2650" transform="translate(304.2002,280.0996)">
					<path id="path2652" class="st1" d="M0,0h112.5"/>
				</g>
				<g id="g2654" transform="translate(95.333,360.4336)">
					<path id="path2656" class="st1" d="M0,0h321.3"/>
				</g>
				<g id="g2658" transform="translate(304.2002,215.833)">
					<path id="path2660" class="st1" d="M0,0h112.5"/>
				</g>
				<g id="g2662" transform="translate(304.2002,151.5664)">
					<path id="path2664" class="st1" d="M0,0h80.3"/>
				</g>
			</g>
		</g>
	</g>
</g>
</svg>
