<?xml version="1.0" encoding="utf-8"?>
<!-- Generator: Adobe Illustrator 27.0.0, SVG Export Plug-In . SVG Version: 6.00 Build 0)  -->
<svg version="1.1" id="Capa_1" xmlns="http://www.w3.org/2000/svg" xmlns:xlink="http://www.w3.org/1999/xlink" x="0px" y="0px"
	 viewBox="0 0 512 512" style="enable-background:new 0 0 512 512;" xml:space="preserve">
<style type="text/css">
	.st0{fill:none;stroke:#FFFFFF;stroke-width:20.0001;stroke-linecap:round;stroke-linejoin:round;stroke-miterlimit:22.9256;}
	.st1{fill:none;stroke:#FFFFFF;stroke-width:19.9994;stroke-linecap:round;stroke-linejoin:round;stroke-miterlimit:22.9248;}
</style>
<g>
	<polyline class="st0" points="261,452 46,452 46,10 306,10 406,110 406,302 	"/>
	<polyline class="st0" points="306,15 306,110 401,110 	"/>
	<path class="st0" d="M176,178.1L176,178.1c44,0,80,36,80,80v16H96v-16C96,214.1,132,178.1,176,178.1z"/>
	<ellipse class="st1" cx="176" cy="133.3" rx="44.8" ry="44.8"/>
	<path class="st0" d="M286,174.1h70 M356,224.1h-50"/>
	<path class="st0" d="M96,324.1h140 M206,374.1H96"/>
	<rect x="266" y="352" class="st0" width="200" height="150"/>
	<line class="st0" x1="271" y1="427" x2="461" y2="427"/>
	<path class="st0" d="M316,447v-15 M316,347v-45h100v45 M416,432v15"/>
</g>
</svg>
