<?xml version="1.0" encoding="utf-8"?>
<!-- Generator: Adobe Illustrator 27.0.0, SVG Export Plug-In . SVG Version: 6.00 Build 0)  -->
<svg version="1.1" id="svg2262" xmlns:svg="http://www.w3.org/2000/svg"
	 xmlns="http://www.w3.org/2000/svg" xmlns:xlink="http://www.w3.org/1999/xlink" x="0px" y="0px" viewBox="0 0 682.7 682.7"
	 style="enable-background:new 0 0 682.7 682.7;" xml:space="preserve">
<style type="text/css">
	.st0{clip-path:url(#SVGID_00000023243107033195723680000012032078824262965655_);}
	.st1{fill:none;stroke:#FFFFFF;stroke-width:20;stroke-linecap:round;stroke-linejoin:round;stroke-miterlimit:13.3333;}
</style>
<g id="g2268" transform="matrix(1.3333333,0,0,-1.3333333,0,682.66667)">
	<g id="g2270">
		<g>
			<defs>
				<rect id="SVGID_1_" x="-85.3" y="-85.3" width="682.7" height="682.7"/>
			</defs>
			<clipPath id="SVGID_00000002370646281105738450000010320276782578584977_">
				<use xlink:href="#SVGID_1_"  style="overflow:visible;"/>
			</clipPath>
			<g id="g2272" style="clip-path:url(#SVGID_00000002370646281105738450000010320276782578584977_);">
				<g id="g2278" transform="translate(487.522,444.9912)">
					<path id="path2280" class="st1" d="M0,0h-463v54.6c0,2.9,2.3,5.2,5.2,5.2H-5.2c2.9,0,5.2-2.3,5.2-5.2V0z"/>
				</g>
				<g id="g2282" transform="translate(24.478,163.272)">
					<path id="path2284" class="st1" d="M0,0v281.7h463v-432.6c0-2.9-2.3-5.2-5.2-5.2H5.2c-2.9,0-5.2,2.3-5.2,5.2v115.9"/>
				</g>
				<g id="g2298" transform="translate(298.3467,44.0537)">
					<path id="path2300" class="st1" d="M0,0h-84.7c-11.6,0-20.9,9.4-20.9,20.9c0,11.6,9.4,20.9,20.9,20.9H0
						c11.6,0,20.9-9.4,20.9-20.9C20.9,9.4,11.6,0,0,0z"/>
				</g>
				<g id="g2302" transform="translate(434.6992,358.0195)">
					<path id="path2304" class="st1" d="M0,0h-357.4c-3.6,0-6.6,3-6.6,6.6v37c0,3.6,3,6.6,6.6,6.6H0c3.6,0,6.6-3,6.6-6.6v-37
						C6.6,3,3.6,0,0,0z"/>
				</g>
				<g id="g2306" transform="translate(406.4785,324.6572)">
					<path id="path2308" class="st1" d="M0,0h28.2c3.6,0,6.6-3,6.6-6.6v-37c0-3.6-3-6.6-6.6-6.6h-357.4c-3.6,0-6.6,3-6.6,6.6v37
						c0,3.6,3,6.6,6.6,6.6l294.5,0"/>
				</g>
				<g id="g2310" transform="translate(434.6992,122.5586)">
					<path id="path2312" class="st1" d="M0,0h-357.4c-3.6,0-6.6,3-6.6,6.6V112c0,3.6,3,6.6,6.6,6.6H0c3.6,0,6.6-2.9,6.6-6.6V6.6
						C6.6,3,3.6,0,0,0z"/>
				</g>
			</g>
			<use xlink:href="#SVGID_1_"  style="overflow:visible;fill:none;stroke:#FFFFFF;stroke-miterlimit:10;"/>
		</g>
	</g>
</g>
</svg>
