<?xml version="1.0" encoding="utf-8"?>
<!-- Generator: Adobe Illustrator 27.0.0, SVG Export Plug-In . SVG Version: 6.00 Build 0)  -->
<svg version="1.1" id="Capa_1" xmlns="http://www.w3.org/2000/svg" xmlns:xlink="http://www.w3.org/1999/xlink" x="0px" y="0px"
	 viewBox="0 0 469.2 469.2" style="enable-background:new 0 0 469.2 469.2;" xml:space="preserve">
<style type="text/css">
	.st0{fill:#FFFFFF;}
</style>
<g>
	<g>
		<path class="st0" d="M154.6,134.2c-53,0-96,43-96,96s43,96,96,96s96-43,96-96S207.6,134.2,154.6,134.2z M225.6,194.2H191
			c-3.3-16.6-8.5-30-13.8-40.3C198.4,160.1,215.8,174.8,225.6,194.2z M178.6,230.2c0,7.1-0.5,13.7-1.3,20h-45.5
			c-0.7-6.3-1.3-12.9-1.3-20c0-7.1,0.5-13.7,1.3-20h45.5C178.1,216.4,178.6,223,178.6,230.2z M152.3,150.4c0.8,0,1.5-0.2,2.3-0.2
			c0.8,0,1.6,0.2,2.4,0.2c6,9.2,13.3,23.8,17.7,43.8h-40.2C139,174.1,146.3,159.5,152.3,150.4z M131.9,153.8
			c-5.3,10.3-10.4,23.7-13.7,40.3H83.5C93.4,174.8,110.7,160.1,131.9,153.8z M74.6,230.2c0-6.9,1.2-13.6,2.8-20h38.3
			c-0.7,6.3-1.1,12.9-1.1,20c0,7.1,0.5,13.7,1.2,20H77.4C75.8,243.7,74.6,237.1,74.6,230.2z M83.5,266.2h34.6
			c3.3,16.6,8.5,30.1,13.7,40.3C110.7,300.2,93.4,285.5,83.5,266.2z M156.9,309.9c-0.8,0-1.5,0.2-2.3,0.2s-1.5-0.2-2.3-0.2
			c-5.7-8.8-13.2-23.4-17.7-43.8h40.1C170.1,286.5,162.7,301.1,156.9,309.9z M177.3,306.5c5.2-10.2,10.3-23.7,13.7-40.3h34.6
			C215.8,285.5,198.4,300.1,177.3,306.5z M193.4,250.2c0.7-6.3,1.2-12.9,1.2-20c0-7.1-0.5-13.7-1.1-20h38.3c1.7,6.4,2.8,13.1,2.8,20
			c0,6.9-1.2,13.6-2.8,20H193.4z"/>
	</g>
</g>
<g>
	<g>
		<rect x="74.6" y="374.2" class="st0" width="160" height="16"/>
	</g>
</g>
<g>
	<g>
		
			<rect x="333.6" y="268.4" transform="matrix(0.2589 -0.9659 0.9659 0.2589 -7.9428 542.4964)" class="st0" width="32" height="16"/>
	</g>
</g>
<g>
	<g>
		
			<rect x="266.6" y="368.8" transform="matrix(0.2588 -0.9659 0.9659 0.2588 -124.8716 590.9613)" class="st0" width="112" height="16"/>
	</g>
</g>
<g>
	<g>
		<path class="st0" d="M434.9,50.8L249.4,1.1c-2.8-0.7-5.6-1.1-8.3-1.1C227,0,214,9.4,210.2,23.7l-16.7,62.4H26.6
			c-8.8,0-16,7.2-16,16v320c0,8.8,7.2,16,16,16h184.8L323,468.1c2.8,0.7,5.6,1.1,8.3,1.1c14.1,0,27.1-9.4,30.9-23.7L457.5,90
			C462.1,72.9,451.9,55.4,434.9,50.8z M26.6,422.2v-320h240c8.8,0,16,7.2,16,16v288c0,8.8-7.2,16-16,16H26.6z M442,85.8l-95.2,355.5
			c-1.9,7-8.2,11.9-15.4,11.9c-1.4,0-2.8-0.2-4.2-0.6l-55.8-15c15.4-2.3,27.2-15.5,27.2-31.5V279.3l8.2,2.2l8.3-30.9l-15.5-4.1
			l-1,3.8V123.1c5,1.3,10.7,2.9,16.3,4.4l18.9,61.9l13.2,3.6l-1.3-57.1c8.7,2.3,17.6,4.7,23.4,6.3l10.3,18.1l8.8,2.4l-1.5-25.3
			l13.9-21.1l-8.8-2.4l-18,10.6c-5.8-1.6-14.7-3.9-23.4-6.3l29.7-48.8L367,65.7l-47.3,44.1c-9.3-2.5-19.5-5.2-25-6.7
			c-5.4-10.1-15.9-17-28.1-17H210l15.6-58.3c1.9-7,8.2-11.9,15.4-11.9c1.4,0,2.8,0.2,4.2,0.6l185.5,49.7c4.1,1.1,7.6,3.8,9.7,7.5
			C442.6,77.4,443.1,81.7,442,85.8z"/>
	</g>
</g>
<g>
	<g>
		
			<rect x="339.4" y="218.5" transform="matrix(0.2558 -0.9667 0.9667 0.2558 39.6854 504.2546)" class="st0" width="16" height="15.7"/>
	</g>
</g>
<g>
	<g>
		
			<rect x="369.7" y="226.6" transform="matrix(0.2558 -0.9667 0.9667 0.2558 54.4848 539.6155)" class="st0" width="16" height="15.7"/>
	</g>
</g>
<g>
	<g>
		
			<rect x="309" y="210.4" transform="matrix(0.2558 -0.9667 0.9667 0.2558 24.8631 468.914)" class="st0" width="16" height="15.7"/>
	</g>
</g>
</svg>
