<?xml version="1.0" encoding="UTF-8"?>
<svg width="700pt" height="700pt" version="1.1" viewBox="0 0 700 700" xmlns="http://www.w3.org/2000/svg">
 <path d="m484.87 267.63c3.3789 3.2578 5.3008 7.7422 5.3438 12.434 0.039062 4.6953-1.8047 9.207-5.125 12.527-3.3203 3.3203-7.832 5.1641-12.527 5.125-4.6914-0.042969-9.1758-1.9648-12.434-5.3438l-92.629-92.625v202.75c0 6.2539-3.3359 12.031-8.75 15.156s-12.086 3.125-17.5 0-8.75-8.9023-8.75-15.156v-202.75l-92.629 92.625c-4.4453 4.293-10.824 5.9258-16.785 4.293-5.957-1.6367-10.613-6.293-12.25-12.25-1.6328-5.9609 0-12.34 4.293-16.785l122.5-122.5c3.2891-3.2695 7.7383-5.1055 12.375-5.1055 4.6406 0 9.0898 1.8359 12.379 5.1055zm127.63 12.371c0 69.621-27.656 136.39-76.883 185.62-49.23 49.227-116 76.883-185.62 76.883s-136.39-27.656-185.62-76.883c-49.227-49.23-76.883-116-76.883-185.62s27.656-136.39 76.883-185.62c49.23-49.227 116-76.883 185.62-76.883 69.594 0.078125 136.32 27.762 185.53 76.973 49.211 49.211 76.895 115.93 76.973 185.53zm-35 0c0-60.336-23.969-118.2-66.633-160.87-42.664-42.664-100.53-66.633-160.87-66.633s-118.2 23.969-160.87 66.633c-42.664 42.664-66.633 100.53-66.633 160.87s23.969 118.2 66.633 160.87c42.664 42.664 100.53 66.633 160.87 66.633 60.316-0.066406 118.14-24.059 160.79-66.707 42.648-42.648 66.641-100.48 66.707-160.79z"/>
</svg>
