<?xml version="1.0" encoding="utf-8"?>
<!-- Generator: Adobe Illustrator 27.0.0, SVG Export Plug-In . SVG Version: 6.00 Build 0)  -->
<svg version="1.1" id="Capa_1" xmlns="http://www.w3.org/2000/svg" xmlns:xlink="http://www.w3.org/1999/xlink" x="0px" y="0px"
	 viewBox="0 0 512 512" style="enable-background:new 0 0 512 512;" xml:space="preserve">
<style type="text/css">
	.st0{fill:#FFFFFF;}
</style>
<g>
	<g id="Page-1_49_">
		<g id="paperwork_export_49_" transform="translate(-536.000000, -303.000000)">
			<path id="signature_x2C_-name_x2C_-person_x2C_-distinctive_x2C_-identification_x2C_-authorization" class="st0" d="
				M618.6,721.2c0,8.3-6.7,15-15,15s-15-6.7-15-15c0-20.3,0.6-39.7,1.7-58c-7,2-14,3.7-21.2,5.1c-8.1,1.6-16-3.6-17.7-11.8
				c-1.6-8.1,3.6-16,11.8-17.7c10.2-2,20.2-4.7,29.8-7.9c3.2-30.7,8.3-57.4,15.2-78.7c16.5-50.8,46.1-74.1,84.8-54.8
				c38.7,19.3,39.8,59.7,9.7,97c-18.7,23.2-47.5,43.6-81.5,57.9C619.4,673.6,618.6,696.7,618.6,721.2z M679.2,575.6
				c19.4-24.1,19-42,0.3-51.3c-18-9-31.2,1.4-42.8,37.2c-5,15.4-9,34.3-11.9,56.1C647.5,606,666.5,591.4,679.2,575.6z M837.7,510.8
				l135.2-135.2c11.7-11.7,30.8-11.7,42.5,0l23.8,23.8c11.7,11.7,11.7,30.8,0,42.5L904,577.1c-5.6,5.6-13.3,8.8-21.2,8.8h-38.8
				c-8.3,0-15-6.7-15-15v-38.8C828.9,524.1,832.1,516.5,837.7,510.8z M882.8,555.9l90.1-90.1l-23.8-23.8l-90.1,90.1v23.8H882.8z
				 M1018,420.7l-23.8-23.8l-23.8,23.8l23.8,23.8L1018,420.7z M705,671c-5.5,6.2-15,6.9-21.2,1.4c-6.2-5.5-6.9-15-1.4-21.2
				l41.5-47.5c8.2-9.4,22.4-10.3,31.8-2.1c4.2,3.6,6.8,8.7,7.5,14.2l1.5,11.9l9.4-9.9c8.6-9,22.8-9.4,31.9-0.9
				c1.1,1,2.1,2.2,2.9,3.4l11.1,15.9l49.8-14.2c8-2.3,16.3,2.4,18.6,10.3c2.3,8-2.4,16.3-10.3,18.6l-54.9,15.6
				c-9.2,2.6-19.1-0.9-24.6-8.7l-8.9-12.7l-14,14.8c-3.6,3.8-8.4,6.2-13.6,6.9c-12.3,1.5-23.6-7.2-25.2-19.6l-1.4-11.1L705,671z
				 M971.6,570.9c0-8.3,6.7-15,15-15s15,6.7,15,15v135.2c0,24.9-20.2,45.1-45.1,45.1H663.7c-8.3,0-15-6.7-15-15c0-8.3,6.7-15,15-15
				h292.9c8.3,0,15-6.7,15-15V570.9z M858.9,405.7c8.3,0,15,6.7,15,15s-6.7,15-15,15H581.1c-8.3,0-15,6.7-15,15v120.2
				c0,8.3-6.7,15-15,15s-15-6.7-15-15V450.7c0-24.9,20.2-45.1,45.1-45.1H858.9z"/>
		</g>
	</g>
</g>
</svg>
