<?xml version="1.0" encoding="utf-8"?>
<!-- Generator: Adobe Illustrator 27.0.0, SVG Export Plug-In . SVG Version: 6.00 Build 0)  -->
<svg version="1.1" id="Layer_1" xmlns="http://www.w3.org/2000/svg" xmlns:xlink="http://www.w3.org/1999/xlink" x="0px" y="0px"
	 viewBox="0 0 512 512" style="enable-background:new 0 0 512 512;" xml:space="preserve">
<style type="text/css">
	.st0{fill:#FFFFFF;}
</style>
<g id="OUTLINE">
	<path class="st0" d="M40,208h136v-16H40c-4.4,0-8-3.6-8-8V40c0-4.4,3.6-8,8-8h184c4.4,0,8,3.6,8,8v104h16V40c0-13.2-10.8-24-24-24
		H40c-13.2,0-24,10.8-24,24v144C16,197.2,26.8,208,40,208z"/>
	<path class="st0" d="M397.8,432.6l-16.4-43.7c-4.6-12.3-15-21.6-27.8-24.8l-43-10.8l-3.8-15.2c-2.3-9.1-9.6-16-18.8-17.7V312
		c0-2.5,1.2-4.9,3.2-6.4l3.2-2.4c16.1-12.1,25.6-31.1,25.6-51.2v-28c0-35.3-28.7-64-64-64s-64,28.7-64,64v28
		c0,20.1,9.5,39.1,25.6,51.2l3.2,2.4c2,1.5,3.2,3.9,3.2,6.4v8.4c-9.2,1.7-16.5,8.7-18.8,17.7l-3.8,15.2l-43,10.8
		c-12.8,3.2-23.1,12.4-27.8,24.8l-16.4,43.7C97.9,442.8,88,460.7,88,480v16h336v-16C424,460.7,414.1,442.8,397.8,432.6z M208,252
		v-28c0-26.5,21.5-48,48-48s48,21.5,48,48v28c0,15.1-7.1,29.3-19.2,38.4l-3.2,2.4c-6,4.5-9.6,11.7-9.6,19.2v8h-32v-8
		c0-7.5-3.6-14.7-9.6-19.2l-3.2-2.4C215.1,281.3,208,267.1,208,252z M228.5,336h55c3.7,0,6.9,2.5,7.8,6.1l2.5,9.9h-75.5l2.5-9.9
		C221.6,338.5,224.8,336,228.5,336z M145.6,394.5c2.8-7.4,9-12.9,16.7-14.9L209,368h94l46.7,11.7c7.7,1.9,13.9,7.5,16.7,14.9
		l11.4,30.3c-3.2-0.6-6.5-0.9-9.8-0.9H144c-3.3,0-6.6,0.3-9.8,0.9L145.6,394.5z M104,480c0-22.1,17.9-40,40-40h224
		c22.1,0,40,17.9,40,40H104z"/>
	<path class="st0" d="M112,384H40c-4.4,0-8-3.6-8-8V248c0-4.4,3.6-8,8-8h136v-16H40c-13.2,0-24,10.8-24,24v128c0,13.2,10.8,24,24,24
		h72V384z"/>
	<path class="st0" d="M472,16H288c-13.2,0-24,10.8-24,24v104h16V40c0-4.4,3.6-8,8-8h184c4.4,0,8,3.6,8,8v144c0,4.4-3.6,8-8,8H336v16
		h136c13.2,0,24-10.8,24-24V40C496,26.8,485.2,16,472,16z"/>
	<path class="st0" d="M472,224H336v16h136c4.4,0,8,3.6,8,8v128c0,4.4-3.6,8-8,8h-72v16h72c13.2,0,24-10.8,24-24V248
		C496,234.8,485.2,224,472,224z"/>
	<path class="st0" d="M48,56h40v16H48V56z"/>
	<path class="st0" d="M112,56h40v16h-40V56z"/>
	<path class="st0" d="M176,56h40v16h-40V56z"/>
	<path class="st0" d="M48,88h40v16H48V88z"/>
	<path class="st0" d="M112,88h40v16h-40V88z"/>
	<path class="st0" d="M176,88h40v16h-40V88z"/>
	<path class="st0" d="M48,152h40v16H48V152z"/>
	<path class="st0" d="M112,152h40v16h-40V152z"/>
	<path class="st0" d="M176,152h32v16h-32V152z"/>
	<path class="st0" d="M48,120h40v16H48V120z"/>
	<path class="st0" d="M112,120h40v16h-40V120z"/>
	<path class="st0" d="M176,120h40v16h-40V120z"/>
	<path class="st0" d="M301.7,149.7l34.3-34.3l24,24l40-40l24,24l45.7-45.7l-11.3-11.3L424,100.7l-24-24l-40,40l-24-24l-45.7,45.7
		L301.7,149.7z"/>
	<path class="st0" d="M296,48h48v16h-48V48z"/>
	<path class="st0" d="M336,160h32v16h-32V160z"/>
	<path class="st0" d="M384,160h32v16h-32V160z"/>
	<path class="st0" d="M432,160h32v16h-32V160z"/>
	<path class="st0" d="M48,256h40v16H48V256z"/>
	<path class="st0" d="M112,256h64v16h-64V256z"/>
	<path class="st0" d="M48,288h40v16H48V288z"/>
	<path class="st0" d="M112,288h64v16h-64V288z"/>
	<path class="st0" d="M48,352h40v16H48V352z"/>
	<path class="st0" d="M112,352h24v16h-24V352z"/>
	<path class="st0" d="M48,320h40v16H48V320z"/>
	<path class="st0" d="M112,320h64v16h-64V320z"/>
	<path class="st0" d="M448,256h16v16h-16V256z"/>
	<path class="st0" d="M448,288h16v16h-16V288z"/>
	<path class="st0" d="M448,352h16v16h-16V352z"/>
	<path class="st0" d="M448,320h16v16h-16V320z"/>
	<path class="st0" d="M336,256h48v16h-48V256z"/>
	<path class="st0" d="M336,288h48v16h-48V288z"/>
	<path class="st0" d="M336,320h48v16h-48V320z"/>
	<path class="st0" d="M408,256h16v16h-16V256z"/>
	<path class="st0" d="M408,288h16v16h-16V288z"/>
	<path class="st0" d="M408,352h16v16h-16V352z"/>
	<path class="st0" d="M408,320h16v16h-16V320z"/>
</g>
</svg>
