<?xml version="1.0" encoding="utf-8"?>
<!-- Generator: Adobe Illustrator 27.0.0, SVG Export Plug-In . SVG Version: 6.00 Build 0)  -->
<svg version="1.1" id="Layer_1" xmlns="http://www.w3.org/2000/svg" xmlns:xlink="http://www.w3.org/1999/xlink" x="0px" y="0px"
	 viewBox="0 0 512 512" style="enable-background:new 0 0 512 512;" xml:space="preserve">
<style type="text/css">
	.st0{fill:#FFFFFF;}
</style>
<g id="website-web-browser-imange-design">
	<path class="st0" d="M384,144h56c4.4,0,8-3.6,8-8s-3.6-8-8-8h-56c-4.4,0-8,3.6-8,8S379.6,144,384,144z"/>
	<path class="st0" d="M344,176h96c4.4,0,8-3.6,8-8s-3.6-8-8-8h-96c-4.4,0-8,3.6-8,8S339.6,176,344,176z"/>
	<path class="st0" d="M344,208h96c4.4,0,8-3.6,8-8s-3.6-8-8-8h-96c-4.4,0-8,3.6-8,8S339.6,208,344,208z"/>
	<path class="st0" d="M344,240h96c4.4,0,8-3.6,8-8s-3.6-8-8-8h-96c-4.4,0-8,3.6-8,8S339.6,240,344,240z"/>
	<path class="st0" d="M344,272h96c4.4,0,8-3.6,8-8s-3.6-8-8-8h-96c-4.4,0-8,3.6-8,8S339.6,272,344,272z"/>
	<path class="st0" d="M344,304h56c4.4,0,8-3.6,8-8s-3.6-8-8-8h-56c-4.4,0-8,3.6-8,8S339.6,304,344,304z"/>
	<path class="st0" d="M472,16H40c-13.2,0-24,10.8-24,24v432c0,13.2,10.8,24,24,24h432c13.2,0,24-10.8,24-24V40
		C496,26.8,485.2,16,472,16z M480,472c0,4.4-3.6,8-8,8H40c-4.4,0-8-3.6-8-8V96h448V472z M480,80H32V40c0-4.4,3.6-8,8-8h432
		c4.4,0,8,3.6,8,8V80z"/>
	<path class="st0" d="M64,48h-8c-4.4,0-8,3.6-8,8s3.6,8,8,8h8c4.4,0,8-3.6,8-8S68.4,48,64,48z"/>
	<path class="st0" d="M104,48h-8c-4.4,0-8,3.6-8,8s3.6,8,8,8h8c4.4,0,8-3.6,8-8S108.4,48,104,48z"/>
	<path class="st0" d="M144,48h-8c-4.4,0-8,3.6-8,8s3.6,8,8,8h8c4.4,0,8-3.6,8-8S148.4,48,144,48z"/>
	<path class="st0" d="M456,48h-8c-4.4,0-8,3.6-8,8s3.6,8,8,8h8c4.4,0,8-3.6,8-8S460.4,48,456,48z"/>
	<path class="st0" d="M344,144h8c4.4,0,8-3.6,8-8s-3.6-8-8-8h-8c-4.4,0-8,3.6-8,8S339.6,144,344,144z"/>
	<path class="st0" d="M440,288h-8c-4.4,0-8,3.6-8,8s3.6,8,8,8h8c4.4,0,8-3.6,8-8S444.4,288,440,288z"/>
	<path class="st0" d="M416,48H224c-4.4,0-8,3.6-8,8s3.6,8,8,8h192c4.4,0,8-3.6,8-8S420.4,48,416,48z"/>
	<path class="st0" d="M72,304h232c4.4,0,8-3.6,8-8V136c0-4.4-3.6-8-8-8H72c-4.4,0-8,3.6-8,8v160C64,300.4,67.6,304,72,304z
		 M177.7,257.1l0.1-0.2l46.2-73.9L289.6,288H158.4L177.7,257.1z M139.6,288H86.9l49.1-73.6l25.6,38.4L139.6,288z M296,144v124.1
		l-65.2-104.4c-2.6-3.8-7.8-4.7-11.6-2c-0.8,0.6-1.5,1.2-2,2l-46.3,74.1l-28.2-42.3c-2.7-3.7-8-4.4-11.6-1.7c-0.6,0.5-1.2,1-1.7,1.7
		l-49.3,74V144H296z"/>
	<path class="st0" d="M304,448h-96c-4.4,0-8-3.6-8-8v-96c0-4.4,3.6-8,8-8h96c4.4,0,8,3.6,8,8v96C312,444.4,308.4,448,304,448z
		 M216,432h80v-80h-80V432z"/>
	<path class="st0" d="M440,448h-96c-4.4,0-8-3.6-8-8v-96c0-4.4,3.6-8,8-8h96c4.4,0,8,3.6,8,8v96C448,444.4,444.4,448,440,448z
		 M352,432h80v-80h-80V432z"/>
	<path class="st0" d="M168,448H72c-4.4,0-8-3.6-8-8v-96c0-4.4,3.6-8,8-8h96c4.4,0,8,3.6,8,8v96C176,444.4,172.4,448,168,448z
		 M80,432h80v-80H80V432z"/>
</g>
</svg>
